<?xml version="1.0" encoding="UTF-8"?>
<!DOCTYPE svg PUBLIC "-//W3C//DTD SVG 1.1//EN" "http://www.w3.org/Graphics/SVG/1.1/DTD/svg11.dtd">
<svg version="1.1" xmlns="http://www.w3.org/2000/svg" xmlns:xlink="http://www.w3.org/1999/xlink" x="0" y="0" width="396" height="726" viewBox="0, 0, 396, 726">
  <g id="Layer_1">
    <path d="M369.013,244.6 C349.701,237.836 343.83,256.18 337.783,268.124 C333.358,276.861 342.785,284.007 348.168,287.216 L345.938,292.364 L342.084,290.596 L318.75,331.596 C308.416,316.019 285.586,293.458 283.336,292.237 C276.62,288.595 249.51,282.622 247.364,282.153 L242.302,280.905 L242.142,280.905 L241.748,276.757 C282.144,273.859 306.356,247.252 315.887,214.272 C327.774,211.716 333.596,205.027 333.596,193.43 C333.596,181.27 327.168,176.257 320.457,174.327 C320.456,174.297 320.454,174.267 320.452,174.236 L320.53,174.236 C320.53,174.236 328.14,93.549 313.472,81.549 C307.452,76.623 302.234,74.621 298.169,73.968 C293.884,69.255 284.429,60.336 269.214,53.549 L271.88,60.216 C271.88,60.216 260.751,51.68 247.548,51.549 C234.343,51.418 226.548,50.882 226.548,50.882 L228.88,57.549 C228.88,57.549 214.216,51.883 199.882,55.549 L202.548,60.549 C202.548,60.549 185.548,57.215 170.214,67.882 L171.882,72.882 C171.882,72.882 169.882,69.549 155.214,81.549 C140.548,93.549 148.155,174.236 148.155,174.236 L148.235,174.236 C148.234,174.267 148.232,174.297 148.23,174.327 C141.519,176.257 135.092,181.271 135.092,193.43 C135.092,205.026 140.913,211.715 152.8,214.272 C162.33,247.252 186.542,273.859 226.938,276.757 L226.544,280.905 L226.385,280.905 C226.385,280.905 224.031,281.487 221.478,282.12 L221.473,282.12 C221.473,282.12 220.058,282.427 217.78,282.946 C201.862,282.505 194.7,283.39 182.138,283.464 C176.132,283.499 154.734,283.884 143.411,284.877 L120.085,234.623 C119.737,233.235 119.388,231.836 119.034,230.424 C122.019,221.744 122.015,211.513 120.81,202.174 C130.387,185.513 120.44,171.802 109.587,169.366 C107.575,168.915 105.667,168.904 103.888,169.237 C97.129,141.565 91.718,118.694 91.053,113.847 C89.375,101.633 92.528,95.404 100.36,84.166 C109.828,70.577 111.667,57.874 106.51,41.686 C102.78,29.982 86.534,7.763 79.142,9.538 L76.715,49.668 C75.99,50.444 68.619,54.726 58.57,55.271 C48.325,55.827 39.726,52.809 38.162,50.279 C38.162,50.279 37.229,7.804 36.094,6.818 C33.828,4.851 28.652,9.32 25.403,12.176 C17.33,19.268 5.577,39.176 5.444,56.615 C5.436,57.691 5.469,58.733 5.541,59.746 C6.717,76.388 18.292,84.729 27.699,91.508 C30.037,93.192 32.246,94.784 34.31,96.469 C42.392,103.065 49.692,114.063 51.286,119.941 C51.418,120.455 57.177,142.845 64.161,170.145 C54.229,173.542 45.322,179.34 42.132,188.346 C36.048,205.527 49.731,237.125 59.632,248.846 C64.76,254.916 71.177,257.055 79.057,256.247 C81.228,259.385 84.856,264.632 89.417,271.233 C89.676,272.802 89.865,274.305 89.965,275.734 C90.623,285.036 88.049,291.661 83.617,299.066 C79.495,305.952 77.334,310.677 77.883,318.458 C78.096,321.465 78.713,324.928 79.779,329.147 C84.18,346.585 98.705,357.26 106.935,356.678 C108.305,356.581 106.711,326.921 106.711,326.921 C107.394,326.096 112.658,323.272 119.682,322.469 C125.629,321.788 130.736,323.25 131.854,324.508 C131.854,324.508 136.367,355.164 137.984,356.566 C139.543,357.921 143.092,355.825 148.33,349.734 C153.675,343.518 159.313,334.148 160.876,324.989 C162.515,325.189 164.237,325.393 166.001,325.6 C174.484,326.962 184.034,328.096 194.208,328.721 L194.247,328.883 C190.122,329.105 187.269,329.411 187.275,329.771 L185.726,338.719 C185.747,340.022 186.65,341.064 187.741,341.046 L188.876,341.026 L188.876,341.107 L186.823,367.452 C186.872,370.297 187.614,372.89 188.806,374.891 L177.88,442.601 L180.587,454.678 L180.587,469.678 L183.941,469.678 L180.019,601.849 C179.974,630.241 173.898,684.807 174.321,688.341 C175.22,695.844 180.085,700.182 180.085,700.182 C180.085,700.182 174.716,708.062 175.97,709.929 C176.34,710.481 179.116,710.706 182.835,710.75 C180.459,711.622 178.313,712.781 176.663,714.331 C170.023,720.568 174.118,722.567 174.118,722.567 L205.964,722.567 L205.964,709.929 C205.964,709.929 209.802,706.93 209.802,704.263 C209.802,702.372 208.155,698.057 207.194,695.703 L207.278,693.106 C208.724,691.143 211.724,686.672 211.47,683.625 C211.208,680.49 218.15,616.737 219.398,594.732 L232.939,502.562 L234.343,501.006 L235.749,502.562 L249.294,594.732 C250.54,616.737 257.482,680.49 257.218,683.625 C256.964,686.672 259.964,691.143 261.409,693.106 L261.493,695.703 C260.532,698.057 258.884,702.372 258.884,704.263 C258.884,706.93 262.722,709.929 262.722,709.929 L262.722,722.567 L294.569,722.567 C294.569,722.567 298.665,720.568 292.025,714.331 C290.375,712.781 288.229,711.622 285.853,710.75 C289.571,710.706 292.349,710.481 292.718,709.929 C293.97,708.062 288.605,700.182 288.605,700.182 C288.605,700.182 293.468,695.844 294.366,688.341 C294.79,684.807 288.716,630.241 288.671,601.849 L284.747,469.678 L288.683,469.678 L288.683,454.678 L291.39,442.601 L280.331,374.061 C281.256,372.194 281.823,369.919 281.864,367.452 L279.925,342.566 C293.635,356.891 316.577,380.273 320.262,380.273 C328.928,380.273 366.416,301.762 366.416,301.762 L359.437,298.559 L363.076,291.848 L364.394,292.169 C364.394,292.169 385.94,288.397 390.292,272.954 C395.851,253.231 381.155,248.853 369.013,244.6" fill="#797979"/>
    <path d="M369.013,244.6 C349.701,237.836 343.83,256.18 337.783,268.124 C333.358,276.861 342.785,284.007 348.168,287.216 L345.938,292.364 L342.084,290.596 L318.75,331.596 C308.416,316.019 285.586,293.458 283.336,292.237 C276.62,288.595 249.51,282.622 247.364,282.153 L242.302,280.905 L242.142,280.905 L241.748,276.757 C282.144,273.859 306.356,247.252 315.887,214.272 C327.774,211.716 333.596,205.027 333.596,193.43 C333.596,181.27 327.168,176.257 320.457,174.327 C320.456,174.297 320.454,174.267 320.452,174.236 L320.53,174.236 C320.53,174.236 328.14,93.549 313.472,81.549 C307.452,76.623 302.234,74.621 298.169,73.968 C293.884,69.255 284.429,60.336 269.214,53.549 L271.88,60.216 C271.88,60.216 260.751,51.68 247.548,51.549 C234.343,51.418 226.548,50.882 226.548,50.882 L228.88,57.549 C228.88,57.549 214.216,51.883 199.882,55.549 L202.548,60.549 C202.548,60.549 185.548,57.215 170.214,67.882 L171.882,72.882 C171.882,72.882 169.882,69.549 155.214,81.549 C140.548,93.549 148.155,174.236 148.155,174.236 L148.235,174.236 C148.234,174.267 148.232,174.297 148.23,174.327 C141.519,176.257 135.092,181.271 135.092,193.43 C135.092,205.026 140.913,211.715 152.8,214.272 C162.33,247.252 186.542,273.859 226.938,276.757 L226.544,280.905 L226.385,280.905 C226.385,280.905 224.031,281.487 221.478,282.12 L221.473,282.12 C221.473,282.12 220.058,282.427 217.78,282.946 C201.862,282.505 194.7,283.39 182.138,283.464 C176.132,283.499 154.734,283.884 143.411,284.877 L120.085,234.623 C119.737,233.235 119.388,231.836 119.034,230.424 C122.019,221.744 122.015,211.513 120.81,202.174 C130.387,185.513 120.44,171.802 109.587,169.366 C107.575,168.915 105.667,168.904 103.888,169.237 C97.129,141.565 91.718,118.694 91.053,113.847 C89.375,101.633 92.528,95.404 100.36,84.166 C109.828,70.577 111.667,57.874 106.51,41.686 C102.78,29.982 86.534,7.763 79.142,9.538 L76.715,49.668 C75.99,50.444 68.619,54.726 58.57,55.271 C48.325,55.827 39.726,52.809 38.162,50.279 C38.162,50.279 37.229,7.804 36.094,6.818 C33.828,4.851 28.652,9.32 25.403,12.176 C17.33,19.268 5.577,39.176 5.444,56.615 C5.436,57.691 5.469,58.733 5.541,59.746 C6.717,76.388 18.292,84.729 27.699,91.508 C30.037,93.192 32.246,94.784 34.31,96.469 C42.392,103.065 49.692,114.063 51.286,119.941 C51.418,120.455 57.177,142.845 64.161,170.145 C54.229,173.542 45.322,179.34 42.132,188.346 C36.048,205.527 49.731,237.125 59.632,248.846 C64.76,254.916 71.177,257.055 79.057,256.247 C81.228,259.385 84.856,264.632 89.417,271.233 C89.676,272.802 89.865,274.305 89.965,275.734 C90.623,285.036 88.049,291.661 83.617,299.066 C79.495,305.952 77.334,310.677 77.883,318.458 C78.096,321.465 78.713,324.928 79.779,329.147 C84.18,346.585 98.705,357.26 106.935,356.678 C108.305,356.581 106.711,326.921 106.711,326.921 C107.394,326.096 112.658,323.272 119.682,322.469 C125.629,321.788 130.736,323.25 131.854,324.508 C131.854,324.508 136.367,355.164 137.984,356.566 C139.543,357.921 143.092,355.825 148.33,349.734 C153.675,343.518 159.313,334.148 160.876,324.989 C162.515,325.189 164.237,325.393 166.001,325.6 C174.484,326.962 184.034,328.096 194.208,328.721 L194.247,328.883 C190.122,329.105 187.269,329.411 187.275,329.771 L185.726,338.719 C185.747,340.022 186.65,341.064 187.741,341.046 L188.876,341.026 L188.876,341.107 L186.823,367.452 C186.872,370.297 187.614,372.89 188.806,374.891 L177.88,442.601 L180.587,454.678 L180.587,469.678 L183.941,469.678 L180.019,601.849 C179.974,630.241 173.898,684.807 174.321,688.341 C175.22,695.844 180.085,700.182 180.085,700.182 C180.085,700.182 174.716,708.062 175.97,709.929 C176.34,710.481 179.116,710.706 182.835,710.75 C180.459,711.622 178.313,712.781 176.663,714.331 C170.023,720.568 174.118,722.567 174.118,722.567 L205.964,722.567 L205.964,709.929 C205.964,709.929 209.802,706.93 209.802,704.263 C209.802,702.372 208.155,698.057 207.194,695.703 L207.278,693.106 C208.724,691.143 211.724,686.672 211.47,683.625 C211.208,680.49 218.15,616.737 219.398,594.732 L232.939,502.562 L234.343,501.006 L235.749,502.562 L249.294,594.732 C250.54,616.737 257.482,680.49 257.218,683.625 C256.964,686.672 259.964,691.143 261.409,693.106 L261.493,695.703 C260.532,698.057 258.884,702.372 258.884,704.263 C258.884,706.93 262.722,709.929 262.722,709.929 L262.722,722.567 L294.569,722.567 C294.569,722.567 298.665,720.568 292.025,714.331 C290.375,712.781 288.229,711.622 285.853,710.75 C289.571,710.706 292.349,710.481 292.718,709.929 C293.97,708.062 288.605,700.182 288.605,700.182 C288.605,700.182 293.468,695.844 294.366,688.341 C294.79,684.807 288.716,630.241 288.671,601.849 L284.747,469.678 L288.683,469.678 L288.683,454.678 L291.39,442.601 L280.331,374.061 C281.256,372.194 281.823,369.919 281.864,367.452 L279.925,342.566 C293.635,356.891 316.577,380.273 320.262,380.273 C328.928,380.273 366.416,301.762 366.416,301.762 L359.437,298.559 L363.076,291.848 L364.394,292.169 C364.394,292.169 385.94,288.397 390.292,272.954 C395.851,253.231 381.155,248.853 369.013,244.6 z" fill-opacity="0" stroke="#797979" stroke-width="8" stroke-linecap="round" stroke-linejoin="round"/>
    <path d="M185.142,435.595 L184.05,465.999 L180.019,601.849 C179.974,630.241 173.898,684.807 174.321,688.341 C175.22,695.844 180.085,700.182 180.085,700.182 C180.085,700.182 174.716,708.062 175.97,709.929 C177.222,711.796 205.964,709.929 205.964,709.929 C205.964,709.929 209.802,706.93 209.802,704.263 C209.802,702.372 208.155,698.057 207.194,695.703 L207.278,693.106 C208.724,691.143 211.724,686.672 211.47,683.625 C211.208,680.49 218.15,616.737 219.398,594.732 L232.939,502.562 L234.343,501.006 L234.343,435.971 z" fill="#C8DADB"/>
    <path d="M185.142,435.595 L184.05,465.999 L180.019,601.849 C179.974,630.241 173.898,684.807 174.321,688.341 C175.22,695.844 180.085,700.182 180.085,700.182 C180.085,700.182 174.716,708.062 175.97,709.929 C177.222,711.796 205.964,709.929 205.964,709.929 C205.964,709.929 209.802,706.93 209.802,704.263 C209.802,702.372 208.155,698.057 207.194,695.703 L207.278,693.106 C208.724,691.143 211.724,686.672 211.47,683.625 C211.208,680.49 218.15,616.737 219.398,594.732 L232.939,502.562 L234.343,501.006 L234.343,435.971 L185.142,435.595 z" fill-opacity="0" stroke="#797979" stroke-width="4" stroke-linecap="round" stroke-linejoin="round"/>
    <path d="M283.546,435.595 L284.638,465.999 L288.671,601.849 C288.716,630.241 294.79,684.807 294.366,688.341 C293.468,695.844 288.605,700.182 288.605,700.182 C288.605,700.182 293.97,708.062 292.718,709.929 C291.466,711.796 262.722,709.929 262.722,709.929 C262.722,709.929 258.884,706.93 258.884,704.263 C258.884,702.372 260.532,698.057 261.493,695.703 L261.409,693.106 C259.964,691.143 256.964,686.672 257.218,683.625 C257.482,680.49 250.54,616.737 249.294,594.732 L235.749,502.562 L234.343,501.006 L234.343,435.971 z" fill="#C8DADB"/>
    <path d="M283.546,435.595 L284.638,465.999 L288.671,601.849 C288.716,630.241 294.79,684.807 294.366,688.341 C293.468,695.844 288.605,700.182 288.605,700.182 C288.605,700.182 293.97,708.062 292.718,709.929 C291.466,711.796 262.722,709.929 262.722,709.929 C262.722,709.929 258.884,706.93 258.884,704.263 C258.884,702.372 260.532,698.057 261.493,695.703 L261.409,693.106 C259.964,691.143 256.964,686.672 257.218,683.625 C257.482,680.49 250.54,616.737 249.294,594.732 L235.749,502.562 L234.343,501.006 L234.343,435.971 L283.546,435.595 z" fill-opacity="0" stroke="#797979" stroke-width="4" stroke-linecap="round" stroke-linejoin="round"/>
    <g>
      <path d="M155.214,81.548 C169.882,69.548 171.882,72.881 171.882,72.881 L170.214,67.881 C185.548,57.214 202.548,60.548 202.548,60.548 L199.882,55.548 C214.216,51.882 228.88,57.548 228.88,57.548 L226.548,50.881 C226.548,50.881 234.343,51.417 247.548,51.548 C260.751,51.679 271.88,60.215 271.88,60.215 L269.214,53.548 C284.429,60.335 293.884,69.254 298.169,73.967 C302.234,74.62 307.452,76.622 313.472,81.548 C328.14,93.548 320.53,174.235 320.53,174.235 L234.343,174.235 L148.155,174.235 C148.155,174.235 140.548,93.548 155.214,81.548" fill="#AB986C"/>
      <path d="M155.214,81.548 C169.882,69.548 171.882,72.881 171.882,72.881 L170.214,67.881 C185.548,57.214 202.548,60.548 202.548,60.548 L199.882,55.548 C214.216,51.882 228.88,57.548 228.88,57.548 L226.548,50.881 C226.548,50.881 234.343,51.417 247.548,51.548 C260.751,51.679 271.88,60.215 271.88,60.215 L269.214,53.548 C284.429,60.335 293.884,69.254 298.169,73.967 C302.234,74.62 307.452,76.622 313.472,81.548 C328.14,93.548 320.53,174.235 320.53,174.235 L234.343,174.235 L148.155,174.235 C148.155,174.235 140.548,93.548 155.214,81.548 z" fill-opacity="0" stroke="#797979" stroke-width="4" stroke-linecap="round" stroke-linejoin="round"/>
      <path d="M283.336,292.237 C276.342,288.443 247.213,282.12 247.213,282.12 L221.473,282.12 C221.473,282.12 192.344,288.443 185.351,292.237 L195.452,333.846 L273.233,333.846 z" fill="#C8DADB"/>
      <path d="M283.336,292.237 C276.342,288.443 247.213,282.12 247.213,282.12 L221.473,282.12 C221.473,282.12 192.344,288.443 185.351,292.237 L195.452,333.846 L273.233,333.846 L283.336,292.237 z" fill-opacity="0" stroke="#797979" stroke-width="4" stroke-linecap="round" stroke-linejoin="round"/>
      <path d="M242.302,282.604 L240.833,267.088 L234.343,262.868 L227.853,267.088 L226.384,282.604 C226.384,282.604 224.636,294.03 234.343,294.03 C244.05,294.03 242.302,282.604 242.302,282.604" fill="#FEEED8"/>
      <path d="M242.302,282.604 L240.833,267.088 L234.343,262.868 L227.853,267.088 L226.384,282.604 C226.384,282.604 224.636,294.03 234.343,294.03 C244.05,294.03 242.302,282.604 242.302,282.604 z" fill-opacity="0" stroke="#797979" stroke-width="4" stroke-linecap="round" stroke-linejoin="round"/>
      <path d="M369.013,244.6 C349.701,237.836 343.83,256.18 337.783,268.124 C333.358,276.861 342.786,284.007 348.169,287.216 L342.299,300.762 L354.478,307.701 L363.076,291.848 L364.394,292.169 C364.394,292.169 385.94,288.397 390.292,272.953 C395.851,253.23 381.155,248.853 369.013,244.6" fill="#FEEED8"/>
      <path d="M369.013,244.6 C349.701,237.836 343.83,256.18 337.783,268.124 C333.358,276.861 342.786,284.007 348.169,287.216 L342.299,300.762 L354.478,307.701 L363.076,291.848 L364.394,292.169 C364.394,292.169 385.94,288.397 390.292,272.953 C395.851,253.23 381.155,248.853 369.013,244.6 z" fill-opacity="0" stroke="#797979" stroke-width="4" stroke-linecap="round" stroke-linejoin="round"/>
      <g>
        <path d="M342.892,260.737 C342.892,260.737 344.676,269.301 360.272,269.046 L362.406,258.775" fill="#FEEED8"/>
        <path d="M342.892,260.737 C342.892,260.737 344.676,269.301 360.272,269.046 L362.406,258.775" fill-opacity="0" stroke="#797979" stroke-width="4" stroke-linecap="round" stroke-linejoin="round"/>
      </g>
      <g>
        <path d="M247.213,282.12 C247.213,282.12 276.342,288.443 283.336,292.237 C285.586,293.458 308.416,316.019 318.75,331.596 L342.084,290.596 L366.416,301.762 C366.416,301.762 328.928,380.273 320.262,380.273 C314.95,380.273 269.617,331.681 269.617,331.681" fill="#C8DADB"/>
        <path d="M247.213,282.12 C247.213,282.12 276.342,288.443 283.336,292.237 C285.586,293.458 308.416,316.019 318.75,331.596 L342.084,290.596 L366.416,301.762 C366.416,301.762 328.928,380.273 320.262,380.273 C314.95,380.273 269.617,331.681 269.617,331.681" fill-opacity="0" stroke="#797979" stroke-width="4" stroke-linecap="round" stroke-linejoin="round"/>
      </g>
      <path d="M115.467,209.458 C115.467,209.458 90.557,220.671 90.224,188.568 C90.116,178.079 98.216,166.818 109.587,169.366 C121.987,172.148 133.206,189.652 115.467,209.458" fill="#FEEED8"/>
      <path d="M115.467,209.458 C115.467,209.458 90.557,220.671 90.224,188.568 C90.116,178.079 98.216,166.818 109.587,169.366 C121.987,172.148 133.206,189.652 115.467,209.458 z" fill-opacity="0" stroke="#797979" stroke-width="4" stroke-linecap="round" stroke-linejoin="round"/>
      <g>
        <path d="M219.21,282.987 C202.278,282.451 195.071,283.388 182.138,283.464 C175.548,283.503 150.424,283.961 140.414,285.184 C127.969,286.703 127.357,308.686 129.339,315.741 C129.935,317.859 159.208,326.845 196.236,328.845" fill="#C8DADB"/>
        <path d="M219.21,282.987 C202.278,282.451 195.071,283.388 182.138,283.464 C175.548,283.503 150.424,283.961 140.414,285.184 C127.969,286.703 127.357,308.686 129.339,315.741 C129.935,317.859 159.208,326.845 196.236,328.845" fill-opacity="0" stroke="#797979" stroke-width="4" stroke-linecap="round" stroke-linejoin="round"/>
      </g>
      <g>
        <path d="M145.486,289.345 L116.854,227.659 L76.819,253.014 C76.819,253.014 96.781,281.853 117.077,311.316 C123.986,321.345 137.892,322.39 189.883,328.336" fill="#C8DADB"/>
        <path d="M145.486,289.345 L116.854,227.659 L76.819,253.014 C76.819,253.014 96.781,281.853 117.077,311.316 C123.986,321.345 137.892,322.39 189.883,328.336" fill-opacity="0" stroke="#797979" stroke-width="4" stroke-linecap="round" stroke-linejoin="round"/>
      </g>
      <path d="M25.402,12.175 C17.33,19.268 5.577,39.175 5.443,56.614 C5.435,57.691 5.468,58.733 5.541,59.745 C6.716,76.387 18.292,84.729 27.699,91.507 C30.037,93.192 32.246,94.783 34.309,96.468 C42.391,103.064 49.691,114.062 51.286,119.94 C51.607,121.191 85.256,252.005 88.784,267.925 C89.408,270.747 89.794,273.329 89.964,275.733 C90.623,285.036 88.048,291.661 83.617,299.066 C79.495,305.951 77.334,310.676 77.882,318.457 C78.095,321.464 78.712,324.927 79.778,329.146 C84.179,346.584 98.704,357.259 106.934,356.677 C108.304,356.58 106.71,326.92 106.71,326.92 C107.393,326.096 112.657,323.271 119.681,322.468 C125.628,321.787 130.735,323.249 131.853,324.507 C131.853,324.507 136.366,355.163 137.983,356.565 C139.542,357.92 143.091,355.824 148.329,349.733 C155.334,341.588 162.863,328.026 161.032,316.617 C159.127,304.749 154.396,300.908 148.407,296.046 C146.158,294.22 143.61,292.15 140.697,289.241 C131.263,279.819 126.788,261.296 126.743,261.11 C114.999,214.594 92.457,124.078 91.052,113.846 C89.375,101.632 92.527,95.404 100.359,84.165 C109.827,70.576 111.666,57.873 106.509,41.686 C102.779,29.982 86.534,7.762 79.141,9.537 L76.714,49.667 C75.99,50.443 68.619,54.726 58.569,55.271 C48.325,55.826 39.725,52.808 38.162,50.279 C38.162,50.279 37.228,7.803 36.093,6.818 C33.828,4.851 28.651,9.32 25.402,12.175" fill="#CFCFCF"/>
      <path d="M25.402,12.175 C17.33,19.268 5.577,39.175 5.443,56.614 C5.435,57.691 5.468,58.733 5.541,59.745 C6.716,76.387 18.292,84.729 27.699,91.507 C30.037,93.192 32.246,94.783 34.309,96.468 C42.391,103.064 49.691,114.062 51.286,119.94 C51.607,121.191 85.256,252.005 88.784,267.925 C89.408,270.747 89.794,273.329 89.964,275.733 C90.623,285.036 88.048,291.661 83.617,299.066 C79.495,305.951 77.334,310.676 77.882,318.457 C78.095,321.464 78.712,324.927 79.778,329.146 C84.179,346.584 98.704,357.259 106.934,356.677 C108.304,356.58 106.71,326.92 106.71,326.92 C107.393,326.096 112.657,323.271 119.681,322.468 C125.628,321.787 130.735,323.249 131.853,324.507 C131.853,324.507 136.366,355.163 137.983,356.565 C139.542,357.92 143.091,355.824 148.329,349.733 C155.334,341.588 162.863,328.026 161.032,316.617 C159.127,304.749 154.396,300.908 148.407,296.046 C146.158,294.22 143.61,292.15 140.697,289.241 C131.263,279.819 126.788,261.296 126.743,261.11 C114.999,214.594 92.457,124.078 91.052,113.846 C89.375,101.632 92.527,95.404 100.359,84.165 C109.827,70.576 111.666,57.873 106.509,41.686 C102.779,29.982 86.534,7.762 79.141,9.537 L76.714,49.667 C75.99,50.443 68.619,54.726 58.569,55.271 C48.325,55.826 39.725,52.808 38.162,50.279 C38.162,50.279 37.228,7.803 36.093,6.818 C33.828,4.851 28.651,9.32 25.402,12.175 z" fill-opacity="0" stroke="#797979" stroke-width="4" stroke-linecap="round" stroke-linejoin="round"/>
      <path d="M82.768,18.167 C87.179,16.877 96.327,30.745 100.434,43.623 C104.536,56.502 104.163,67.551 95.127,80.521 C86.091,93.488 83.615,101.37 85.435,114.617 C87.255,127.865 121.227,262.414 121.227,262.414 C121.227,262.414 125.96,282.537 136.69,293.253 C147.42,303.97 153.233,303.797 155.434,317.517 C157.638,331.236 143.462,353.086 140.722,350.708 C140.236,350.286 136.199,322.738 136.199,322.738 C136.199,322.738 129.441,314.861 117.702,316.957 C104.585,319.3 101.335,325.33 101.335,325.33 C101.335,325.33 101.632,347.536 102.337,350.724 C103.043,353.91 89.999,346.481 85.275,327.759 C81.837,314.149 83.483,310.327 88.481,301.978 C94.132,292.537 97.907,282.899 94.319,266.7 C90.73,250.502 56.758,118.461 56.758,118.461 C56.758,118.461 49.816,100.894 38.341,91.529 C26.867,82.162 11.672,75.81 11.821,56.663 C11.966,37.517 27.57,11.337 31.735,14.955 C32.769,15.854 35.124,51.492 35.124,51.492 C35.124,51.492 43.206,65.383 61.127,61.414 C79.05,57.445 81.322,51.037 81.322,51.037 z" fill="#F1F1F1"/>
      <path d="M110.549,279.047 C106.424,280.074 102.133,277.087 100.959,272.375 L61.526,114.061 C60.353,109.35 62.744,104.697 66.866,103.67 L68.11,103.36 C72.233,102.334 76.527,105.32 77.699,110.032 L117.132,268.346 C118.306,273.059 115.913,277.711 111.791,278.737 z" fill="#CFCFCF"/>
      <path d="M42.132,188.346 C49.288,168.138 85.226,164.046 96.964,167.12 C111.407,170.902 115.61,178.912 117.763,186.935 C122.536,204.707 126.64,236.142 105.011,247.113 C84.22,257.659 69.532,260.565 59.632,248.846 C49.731,237.125 36.048,205.527 42.132,188.346" fill="#FEEED8"/>
      <path d="M42.132,188.346 C49.288,168.138 85.226,164.046 96.964,167.12 C111.407,170.902 115.61,178.912 117.763,186.935 C122.536,204.707 126.64,236.142 105.011,247.113 C84.22,257.659 69.532,260.565 59.632,248.846 C49.731,237.125 36.048,205.527 42.132,188.346 z" fill-opacity="0" stroke="#797979" stroke-width="4" stroke-linecap="round" stroke-linejoin="round"/>
      <g>
        <path d="M100.399,205.287 L120.228,200.517" fill="#FFFFFF"/>
        <path d="M100.399,205.287 L120.228,200.517" fill-opacity="0" stroke="#797979" stroke-width="4" stroke-linecap="round" stroke-linejoin="round"/>
      </g>
      <g>
        <path d="M94.602,184.948 L111.893,180.305" fill="#FFFFFF"/>
        <path d="M94.602,184.948 L111.893,180.305" fill-opacity="0" stroke="#797979" stroke-width="4" stroke-linecap="round" stroke-linejoin="round"/>
      </g>
      <g>
        <path d="M105.022,224.185 L118.909,220.901" fill="#FFFFFF"/>
        <path d="M105.022,224.185 L118.909,220.901" fill-opacity="0" stroke="#797979" stroke-width="4" stroke-linecap="round" stroke-linejoin="round"/>
      </g>
    </g>
    <g>
      <path d="M196.236,328.846 L177.88,442.601 L180.587,454.678 L288.683,454.678 L291.39,442.601 L273.036,328.846" fill="#C8DADB"/>
      <path d="M196.236,328.846 L177.88,442.601 L180.587,454.678 L288.683,454.678 L291.39,442.601 L273.036,328.846" fill-opacity="0" stroke="#797979" stroke-width="4" stroke-linecap="round" stroke-linejoin="round"/>
    </g>
    <g>
      <g>
        <path d="M226.385,280.905 C226.385,280.905 215.14,283.685 215.137,283.702 C215.103,283.896 218.944,300.763 234.316,300.763 C249.686,300.763 253.545,283.677 253.545,283.677 L242.302,280.905" fill="#FEEED8"/>
        <path d="M226.385,280.905 C226.385,280.905 215.14,283.685 215.137,283.702 C215.103,283.896 218.944,300.763 234.316,300.763 C249.686,300.763 253.545,283.677 253.545,283.677 L242.302,280.905" fill-opacity="0" stroke="#797979" stroke-width="4" stroke-linecap="round" stroke-linejoin="round"/>
      </g>
      <path d="M234.343,294.112 C227.618,294.112 223.236,293.205 220.376,291.97 L234.343,345.345 L248.312,291.97 C245.452,293.205 241.069,294.112 234.343,294.112" fill="#797979"/>
      <path d="M234.343,294.112 C227.618,294.112 223.236,293.205 220.376,291.97 L234.343,345.345 L248.312,291.97 C245.452,293.205 241.069,294.112 234.343,294.112 z" fill-opacity="0" stroke="#797979" stroke-width="4" stroke-linecap="round" stroke-linejoin="round"/>
    </g>
    <g>
      <path d="M237.843,454.844 L230.318,454.844 L230.318,328.053 L237.843,328.053 z" fill="#C8DADB"/>
      <path d="M237.843,454.844 L230.318,454.844 L230.318,328.053 L237.843,328.053 z" fill-opacity="0" stroke="#797979" stroke-width="4" stroke-linecap="round" stroke-linejoin="round"/>
    </g>
    <g>
      <path d="M234.343,331.764 L217.626,283.216 L199.886,308.188 z" fill="#C8DADB"/>
      <path d="M234.343,331.764 L217.626,283.216 L199.886,308.188 L234.343,331.764 z" fill-opacity="0" stroke="#797979" stroke-width="4" stroke-linecap="round" stroke-linejoin="round"/>
      <path d="M234.343,331.764 L251.06,283.216 L268.802,308.188 z" fill="#C8DADB"/>
      <path d="M234.343,331.764 L251.06,283.216 L268.802,308.188 L234.343,331.764 z" fill-opacity="0" stroke="#797979" stroke-width="4" stroke-linecap="round" stroke-linejoin="round"/>
      <path d="M244.421,366.763 C244.314,373.18 247.763,378.444 252.128,378.517 L273.763,378.936 C278.128,379.01 281.755,373.866 281.864,367.452 L279.812,341.107 C279.921,334.693 278.946,330.724 274.581,330.648 L254.079,330.302 C249.714,330.228 244.954,335.297 244.845,341.712 z" fill="#C8DADB"/>
      <path d="M244.421,366.763 C244.314,373.18 247.763,378.444 252.128,378.517 L273.763,378.936 C278.128,379.01 281.755,373.866 281.864,367.452 L279.812,341.107 C279.921,334.693 278.946,330.724 274.581,330.648 L254.079,330.302 C249.714,330.228 244.954,335.297 244.845,341.712 L244.421,366.763 z" fill-opacity="0" stroke="#797979" stroke-width="4" stroke-linecap="round" stroke-linejoin="round"/>
      <g>
        <path d="M263.784,341.346 L264.694,378.759" fill="#C8DADB"/>
        <path d="M263.784,341.346 L264.694,378.759" fill-opacity="0" stroke="#797979" stroke-width="4" stroke-linecap="round" stroke-linejoin="round"/>
      </g>
      <path d="M243.368,338.026 C243.349,339.329 244.212,340.401 245.304,340.418 L280.944,341.046 C282.038,341.064 282.941,340.022 282.96,338.719 L281.411,329.771 C281.435,328.466 244.107,327.898 244.085,329.203 z" fill="#C8DADB"/>
      <path d="M243.368,338.026 C243.349,339.329 244.212,340.401 245.304,340.418 L280.944,341.046 C282.038,341.064 282.941,340.022 282.96,338.719 L281.411,329.771 C281.435,328.466 244.107,327.898 244.085,329.203 L243.368,338.026 z" fill-opacity="0" stroke="#797979" stroke-width="4" stroke-linecap="round" stroke-linejoin="round"/>
      <path d="M224.267,366.763 C224.374,373.18 220.925,378.444 216.56,378.517 L194.925,378.936 C190.56,379.01 186.933,373.866 186.823,367.452 L188.876,341.107 C188.767,334.693 189.741,330.724 194.107,330.648 L214.609,330.302 C218.974,330.228 223.734,335.297 223.843,341.712 z" fill="#C8DADB"/>
      <path d="M224.267,366.763 C224.374,373.18 220.925,378.444 216.56,378.517 L194.925,378.936 C190.56,379.01 186.933,373.866 186.823,367.452 L188.876,341.107 C188.767,334.693 189.741,330.724 194.107,330.648 L214.609,330.302 C218.974,330.228 223.734,335.297 223.843,341.712 L224.267,366.763 z" fill-opacity="0" stroke="#797979" stroke-width="4" stroke-linecap="round" stroke-linejoin="round"/>
      <g>
        <path d="M204.903,341.346 L203.993,378.759" fill="#C8DADB"/>
        <path d="M204.903,341.346 L203.993,378.759" fill-opacity="0" stroke="#797979" stroke-width="4" stroke-linecap="round" stroke-linejoin="round"/>
      </g>
      <path d="M225.319,338.026 C225.339,339.329 224.476,340.401 223.384,340.418 L187.741,341.046 C186.65,341.064 185.747,340.022 185.726,338.719 L187.275,329.771 C187.253,328.466 224.579,327.898 224.603,329.203 z" fill="#C8DADB"/>
      <path d="M225.319,338.026 C225.339,339.329 224.476,340.401 223.384,340.418 L187.741,341.046 C186.65,341.064 185.747,340.022 185.726,338.719 L187.275,329.771 C187.253,328.466 224.579,327.898 224.603,329.203 L225.319,338.026 z" fill-opacity="0" stroke="#797979" stroke-width="4" stroke-linecap="round" stroke-linejoin="round"/>
      <g>
        <path d="M163.234,173.794 C163.234,173.794 135.092,167.986 135.092,193.43 C135.092,208.396 144.78,215.192 164.698,215.477" fill="#FEEED8"/>
        <path d="M163.234,173.794 C163.234,173.794 135.092,167.986 135.092,193.43 C135.092,208.396 144.78,215.192 164.698,215.477" fill-opacity="0" stroke="#797979" stroke-width="4" stroke-linecap="round" stroke-linejoin="round"/>
      </g>
      <g>
        <path d="M145.816,194.806 C145.816,194.806 149.505,193.102 153.021,193.124" fill="#FEEED8"/>
        <path d="M145.816,194.806 C145.816,194.806 149.505,193.102 153.021,193.124" fill-opacity="0" stroke="#797979" stroke-width="4" stroke-linecap="round" stroke-linejoin="round"/>
      </g>
      <g>
        <path d="M305.453,173.794 C305.453,173.794 333.596,167.986 333.596,193.43 C333.596,208.396 323.907,215.192 303.989,215.477" fill="#FEEED8"/>
        <path d="M305.453,173.794 C305.453,173.794 333.596,167.986 333.596,193.43 C333.596,208.396 323.907,215.192 303.989,215.477" fill-opacity="0" stroke="#797979" stroke-width="4" stroke-linecap="round" stroke-linejoin="round"/>
      </g>
      <g>
        <path d="M322.872,194.806 C322.872,194.806 319.183,193.102 315.667,193.124" fill="#FEEED8"/>
        <path d="M322.872,194.806 C322.872,194.806 319.183,193.102 315.667,193.124" fill-opacity="0" stroke="#797979" stroke-width="4" stroke-linecap="round" stroke-linejoin="round"/>
      </g>
      <path d="M234.343,277.029 C113.583,277.029 125.267,75.579 234.343,75.579 C343.42,75.579 355.104,277.029 234.343,277.029" fill="#FEEED8"/>
      <path d="M234.343,277.029 C113.583,277.029 125.267,75.579 234.343,75.579 C343.42,75.579 355.104,277.029 234.343,277.029 z" fill-opacity="0" stroke="#797979" stroke-width="4" stroke-linecap="round" stroke-linejoin="round"/>
      <path d="M163.626,99.247 L164.589,111.755 C176.083,102.012 188.425,97.738 188.425,97.738 L187.351,107.009 C193.941,98.041 214.589,92.379 214.589,92.379 L213.728,103.017 C226.124,95.058 243.601,94.396 243.601,94.396 L238.103,103.491 C246.312,99.745 270.571,94.837 270.571,94.837 L267.595,104.559 C294.278,104.293 302.699,102.483 302.699,102.483 C302.699,102.483 296.675,77.226 287.923,72.413 C279.169,67.601 245.066,62.42 232.417,61.736 C219.769,61.053 174.359,73.623 169.691,79.713 C165.021,85.803 163.626,99.247 163.626,99.247" fill="#AB986C"/>
      <path d="M302.699,102.482 C302.699,102.482 294.278,104.292 267.595,104.558 L270.571,94.836 C270.571,94.836 246.312,99.744 238.103,103.49 L243.601,94.396 C243.601,94.396 226.124,95.057 213.728,103.016 L214.589,92.378 C214.589,92.378 193.941,98.04 187.351,107.008 L188.425,97.737 C188.425,97.737 176.083,102.011 164.589,111.754 L163.626,99.246" fill-opacity="0" stroke="#797979" stroke-width="4" stroke-linecap="round" stroke-linejoin="round"/>
      <path d="M276.55,171.921 C276.55,179.548 274.011,185.73 270.88,185.73 C267.751,185.73 265.212,179.548 265.212,171.921 C265.212,164.294 267.751,158.111 270.88,158.111 C274.011,158.111 276.55,164.294 276.55,171.921" fill="#797979"/>
      <path d="M192.724,171.921 C192.724,179.548 195.261,185.73 198.392,185.73 C201.523,185.73 204.06,179.548 204.06,171.921 C204.06,164.294 201.523,158.111 198.392,158.111 C195.261,158.111 192.724,164.294 192.724,171.921" fill="#797979"/>
      <path d="M280.778,140.846 C280.778,140.846 277.343,138.695 271.494,138.695 C266.511,138.695 263.042,141.346 263.042,141.346 M187.909,140.846 C187.909,140.846 191.343,138.695 197.193,138.695 C202.177,138.695 205.645,141.346 205.645,141.346 M230.425,216.512 C230.425,216.512 229.092,222.512 234.344,222.18 M255.46,231.596 C255.46,231.596 252.46,243.596 234.46,243.596 M213.228,231.596 C213.228,231.596 216.228,243.596 234.228,243.596" fill-opacity="0" stroke="#797979" stroke-width="4" stroke-linecap="round" stroke-linejoin="round"/>
    </g>
  </g>
</svg>
